<!DOCTYPE svg PUBLIC "-//W3C//DTD SVG 1.1//EN" "http://www.w3.org/Graphics/SVG/1.1/DTD/svg11.dtd">
<!-- Uploaded to: SVG Repo, www.svgrepo.com, Transformed by: SVG Repo Mixer Tools -->
<svg width="800px" height="800px" viewBox="-6.4 -6.4 76.80 76.80" id="Layer_1" version="1.1" xml:space="preserve" xmlns="http://www.w3.org/2000/svg" xmlns:xlink="http://www.w3.org/1999/xlink" fill="#000000">
<g id="SVGRepo_bgCarrier" stroke-width="0">
<rect x="-6.4" y="-6.4" width="76.80" height="76.80" rx="38.4" fill="#DFFF00" strokewidth="0"/>
</g>
<g id="SVGRepo_tracerCarrier" stroke-linecap="round" stroke-linejoin="round"/>
<g id="SVGRepo_iconCarrier">
<style type="text/css"> .st0{fill:none;stroke:#000000;stroke-width:2;stroke-miterlimit:10;} .st1{fill:none;stroke:#000000;stroke-width:2;stroke-linecap:round;stroke-linejoin:round;stroke-miterlimit:10;} .st2{fill:none;stroke:#000000;stroke-width:2;stroke-linecap:round;stroke-linejoin:round;stroke-miterlimit:10;stroke-dasharray:6,5;} </style>
<path d="M32,10L32,10c0.7,1.3,1.7,2.3,3,3l0,0l0,0c-1.3,0.7-2.3,1.7-3,3v0l0,0c-0.7-1.3-1.7-2.3-3-3l0,0l0,0 C30.3,12.3,31.3,11.3,32,10L32,10z"/>
<path d="M49,16L49,16c0.7,1.3,1.7,2.3,3,3l0,0l0,0c-1.3,0.7-2.3,1.7-3,3v0v0c-0.7-1.3-1.7-2.3-3-3l0,0l0,0 C47.3,18.3,48.3,17.3,49,16L49,16z"/>
<path d="M15,16L15,16c0.7,1.3,1.7,2.3,3,3l0,0l0,0c-1.3,0.7-2.3,1.7-3,3l0,0l0,0c-0.7-1.3-1.7-2.3-3-3l0,0l0,0 C13.3,18.3,14.3,17.3,15,16L15,16z"/>
<circle class="st0" cx="32" cy="36" r="16"/>
<circle class="st1" cx="32" cy="36" r="11.7"/>
<line class="st1" x1="32" x2="32" y1="20" y2="24"/>
<line class="st1" x1="43.3" x2="40.5" y1="24.7" y2="27.5"/>
<line class="st1" x1="48" x2="44" y1="36" y2="36"/>
<line class="st1" x1="43.3" x2="40.5" y1="47.3" y2="44.5"/>
<line class="st1" x1="32" x2="32" y1="52" y2="48"/>
<line class="st1" x1="20.7" x2="23.5" y1="47.3" y2="44.5"/>
<line class="st1" x1="16" x2="20" y1="36" y2="36"/>
<line class="st1" x1="20.7" x2="23.5" y1="24.7" y2="27.5"/>
<path class="st1" d="M29.5,39.8l0.5,0.5c0.5,0.5,1.1,0.7,1.8,0.7H32c1.4,0,2.5-1.1,2.5-2.5v0c0-1.4-1.1-2.5-2.5-2.5h0 c-1.4,0-2.5-1.1-2.5-2.5v0c0-1.4,1.1-2.5,2.5-2.5h0.2c0.7,0,1.3,0.3,1.8,0.7l0.5,0.5"/>
<line class="st1" x1="32" x2="32" y1="31" y2="29"/>
<line class="st1" x1="32" x2="32" y1="41" y2="43"/>
</g>
</svg>